# xmcd
#
# Track frame offsets:
#	150
#	12876
#	26099
#	41072
#	57782
#	71920
#	84618
#	101103
#	116595
#	132269
#
# Disc length: 1955 seconds
#
# Revision: 1
# Processed by: cddbd v1.4PL0 Copyright (c) Steve Scherf et al.
# Submitted via: audiograbber 1.82.00
#
DISCID=8907a10a
DTITLE=Clay Walker  - Hypnotize The Moon
DYEAR=1995
DGENRE=Country
TTITLE0=Who Needs You Baby
TTITLE1=I Won't Have The Heart
TTITLE2=Let Me Take The Heartache (Off Your Hands)
TTITLE3=Hypnotize The Moon
TTITLE4=Hand Me Down Heart
TTITLE5=Only On Days That End In 'Y'
TTITLE6=Where Were You
TTITLE7=Loving You Comes Naturally To Me
TTITLE8=Bury The Shovel
TTITLE9=A Cowboy's Toughest Ride
EXTD=
EXTT0=
EXTT1=
EXTT2=
EXTT3=
EXTT4=
EXTT5=
EXTT6=
EXTT7=
EXTT8=
EXTT9=
PLAYORDER=
